<svg id="Layer_1" data-name="Layer 1" xmlns="http://www.w3.org/2000/svg" xmlns:xlink="http://www.w3.org/1999/xlink" viewBox="0 0 600 600"><defs><style>.cls-1{fill:red;}.cls-2,.cls-4{fill:#fff;}.cls-3{fill:none;stroke-miterlimit:10;stroke:url(#White_Black);}.cls-4,.cls-5{font-size:70px;font-family:Arial-BoldMT, Arial;font-weight:700;}.cls-6{fill:url(#linear-gradient);}.cls-7{fill:url(#linear-gradient-2);}.cls-8{fill:url(#linear-gradient-3);}</style><linearGradient id="White_Black" x1="42.97" y1="307.07" x2="551.73" y2="307.07" gradientTransform="translate(-9.72 604.42) rotate(-90)" gradientUnits="userSpaceOnUse"><stop offset="0" stop-color="#fff"/><stop offset="1"/></linearGradient><linearGradient id="linear-gradient" x1="110" y1="300.87" x2="496.77" y2="300.87" gradientUnits="userSpaceOnUse"><stop offset="0" stop-color="#00bf81"/><stop offset="0.08" stop-color="#09c186"/><stop offset="0.23" stop-color="#23c892"/><stop offset="0.41" stop-color="#4dd2a7"/><stop offset="0.62" stop-color="#86e1c3"/><stop offset="0.86" stop-color="#cff3e7"/><stop offset="1" stop-color="#fff"/></linearGradient><linearGradient id="linear-gradient-2" x1="160.1" y1="307.87" x2="439.9" y2="307.87" gradientTransform="translate(305.56 -121.96) rotate(45)" gradientUnits="userSpaceOnUse"><stop offset="0" stop-color="red"/><stop offset="0.09" stop-color="#ff0606"/><stop offset="0.22" stop-color="#ff1818"/><stop offset="0.36" stop-color="#ff3636"/><stop offset="0.53" stop-color="#ff6060"/><stop offset="0.7" stop-color="#ff9595"/><stop offset="0.89" stop-color="#ffd4d4"/><stop offset="1" stop-color="#fff"/></linearGradient><linearGradient id="linear-gradient-3" x1="160.1" y1="301.87" x2="439.9" y2="301.87" gradientTransform="translate(301.32 -123.72) rotate(45)" gradientUnits="userSpaceOnUse"><stop offset="0" stop-color="#3fb2ff"/><stop offset="0.37" stop-color="#41b3ff"/><stop offset="0.52" stop-color="#48b6ff"/><stop offset="0.62" stop-color="#54baff"/><stop offset="0.7" stop-color="#65c1ff"/><stop offset="0.78" stop-color="#7bcaff"/><stop offset="0.84" stop-color="#97d5ff"/><stop offset="0.9" stop-color="#b8e3ff"/><stop offset="0.95" stop-color="#ddf1ff"/><stop offset="0.99" stop-color="#fff"/></linearGradient></defs><title>newlogo</title><circle class="cls-1" cx="300" cy="300" r="300"/><circle class="cls-2" cx="300" cy="306.9" r="204.02"/><circle class="cls-3" cx="297.35" cy="307.07" r="253.88"/><text class="cls-4" transform="matrix(0.71, -0.7, 0.7, 0.71, 123.85, 159.82)">S</text><text class="cls-4" transform="matrix(0.84, -0.54, 0.54, 0.84, 155.25, 128.38)">H</text><text class="cls-4" transform="translate(196.79 102.78) rotate(-24.39)">I</text><text class="cls-4" transform="translate(212.92 94.71) rotate(-17.33)">J</text><text class="cls-4" transform="translate(248.84 84.03) rotate(-10.26)">I</text><text class="cls-4" transform="translate(266.27 79.82) rotate(-2.34)">E</text><text class="cls-4" transform="translate(311.31 78.8) rotate(5.52)"> </text><text class="cls-4" transform="translate(329.29 79.67) rotate(13.02)">Z</text><text class="cls-4" transform="matrix(0.91, 0.41, -0.41, 0.91, 368.99, 88.23)">H</text><text class="cls-4" transform="translate(413.06 107.63) rotate(36.95)">O</text><text class="cls-4" transform="translate(454.66 138.86) rotate(49.51)">U</text><text class="cls-4" transform="matrix(0.53, 0.85, -0.85, 0.53, 485.58, 176.62)"> </text><text class="cls-5" transform="translate(484.3 442.66) rotate(131.33)">S</text><text class="cls-5" transform="translate(455.27 476.32) rotate(142.96)">H</text><text class="cls-5" transform="translate(415.7 504.9) rotate(151.38)">I</text><text class="cls-5" transform="translate(400.21 514.14) rotate(158.42)">J</text><text class="cls-5" transform="translate(365.17 527.44) rotate(165.5)">I</text><text class="cls-5" transform="matrix(-0.99, 0.11, -0.11, -0.99, 348.12, 532.94)">E</text><text class="cls-5" transform="translate(303.31 537.23) rotate(-178.66)"> </text><text class="cls-5" transform="translate(285.28 537.67) rotate(-171.22)">Z</text><text class="cls-5" transform="matrix(-0.94, -0.34, 0.34, -0.94, 245.06, 532.06)">H</text><text class="cls-5" transform="matrix(-0.84, -0.54, 0.54, -0.84, 199.67, 515.97)">O</text><text class="cls-5" transform="matrix(-0.7, -0.71, 0.71, -0.7, 155.9, 487.88)">U</text><text class="cls-5" transform="translate(122.31 452.47) rotate(-126.3)"> </text><polygon class="cls-2" points="43.47 272.72 51.49 288.96 69.41 291.57 56.44 304.21 59.5 322.07 43.47 313.64 27.43 322.07 30.5 304.21 17.53 291.57 35.45 288.96 43.47 272.72"/><polygon class="cls-1" points="43.23 284.85 47.47 293.45 56.96 294.83 50.09 301.52 51.72 310.98 43.23 306.51 34.74 310.98 36.36 301.52 29.49 294.83 38.98 293.45 43.23 284.85"/><polygon class="cls-2" points="551.23 272.72 559.25 288.96 577.18 291.57 564.21 304.21 567.27 322.07 551.23 313.64 535.2 322.07 538.26 304.21 525.29 291.57 543.22 288.96 551.23 272.72"/><polygon class="cls-1" points="551.23 285.41 555.48 294.01 564.97 295.39 558.1 302.08 559.72 311.54 551.23 307.07 542.74 311.54 544.37 302.08 537.5 295.39 546.99 294.01 551.23 285.41"/><ellipse class="cls-6" cx="303.39" cy="300.87" rx="193.39" ry="41.55"/><ellipse class="cls-7" cx="300" cy="307.87" rx="41.55" ry="193.39" transform="translate(-129.83 302.3) rotate(-45)"/><ellipse class="cls-8" cx="300" cy="301.87" rx="193.39" ry="41.55" transform="translate(-125.59 300.55) rotate(-45)"/><rect class="cls-2" x="299.25" y="282.55" width="1.15" height="39.67"/><rect class="cls-2" x="299.25" y="282.55" width="1.15" height="39.67" transform="translate(602.21 2.57) rotate(90)"/></svg>